<?xml version="1.0" encoding="UTF-8"?><svg id="b" xmlns="http://www.w3.org/2000/svg" width="402.9361" height="329.889" viewBox="0 0 402.9361 329.889"><defs><style>.d{fill:#fff;}</style></defs><g id="c"><path class="d" d="M273.293,223.3905h88.4806l-.009-153.3688-88.4716-47.8397V223.3905m-6.9999-140.4263l-19.8173-6.7984-110.4857,29.018v32.9885l110.6759-18.9567,19.6271,4.3878v-40.6392Zm0,61.4684v-13.6848l-19.7603-4.4172-117.5425,20.1325v-46.6617c39.2584-10.309,78.5188-20.6121,117.7744-30.9322l19.5284,6.6991v-14.54l-19.8385-8.0581-117.4161,36.4952-.0168-21.9951-82.1341,28.8334v127.0868h219.4055v-22.96l-19.7078-1.075-117.5953,4.9136,.0003-48.096c39.2371-4.9972,78.4768-9.9791,117.7112-14.9987l19.5916,3.2581Zm0,7.0767l-19.7538-3.2848-110.5492,14.0859v34.6822l110.6776-4.6247,19.6254,1.0706v-41.9292ZM136.004,79.9915l110.7819-34.4336,19.5072,7.9237V18.3983l-19.9771-10.7881-110.3375,38.734,.0255,33.6473Zm-6.9879-19.9157l-.0142-18.6789C168.3108,27.6018,207.6194,13.8051,246.9248,0c40.6123,21.9351,81.2107,43.8957,121.8121,65.8506,.0071,52.514,.0094,105.0278,.0097,157.5419h34.1895v6.9999H0v-6.9999H39.8877V91.3646l89.1284-31.2888Z"/><path class="d" d="M101.304,267.7493l-3.4696-7.7371-3.2295,7.7371h6.6991Zm-4.5286-12.4276h2.1495l9.5686,21.4744h-3.1303l-2.8383-6.3232h-9.1043l-2.666,6.3232h-3.1408l9.1616-21.4744Z"/><path class="d" d="M118.6588,258.1702h-3.1668v6.668h3.3494c1.2418,0,2.2017-.2923,2.8749-.8768,.6729-.5842,1.0068-1.4241,1.0068-2.5095,0-2.1858-1.3566-3.2817-4.0643-3.2817m-6.2348,18.6259v-21.3491h6.7669c2.0401,0,3.6626,.5476,4.8781,1.6486,1.2104,1.1006,1.8156,2.5773,1.8156,4.4294,0,1.247-.3129,2.3426-.9337,3.3027-.6208,.9547-1.4712,1.6537-2.5512,2.0868-1.08,.4332-2.6297,.6469-4.6434,.6469h-2.2643v9.2347h-3.068Z"/><path class="d" d="M139.1176,267.7493l-3.4696-7.7371-3.2295,7.7371h6.6991Zm-4.5286-12.4276h2.1495l9.5686,21.4744h-3.1303l-2.8383-6.3232h-9.1043l-2.666,6.3232h-3.1408l9.1616-21.4744Z"/><path class="d" d="M154.4743,258.0452h-.9184v6.7303h1.1582c1.5497,0,2.6087-.1304,3.1827-.3966,.5792-.2661,1.0225-.6627,1.3459-1.1999,.3184-.5323,.4802-1.1426,.4802-1.8209,0-.673-.1774-1.2836-.5323-1.826-.36-.5426-.8609-.9286-1.5078-1.153-.6417-.2245-1.7163-.3339-3.2085-.3339m-3.9861,18.7509v-21.3491h5.3476c2.1654,0,3.8766,.532,5.1443,1.6016,1.2679,1.0695,1.9043,2.5148,1.9043,4.3409,0,1.2416-.3129,2.3165-.9337,3.2191-.6211,.9076-1.5081,1.5859-2.6714,2.0347,.6834,.4487,1.3513,1.059,2.0035,1.8365,.652,.7722,1.5704,2.1235,2.7547,4.0485,.7407,1.2157,1.3357,2.1288,1.7844,2.7391l1.1322,1.5287h-3.6366l-.934-1.4085c-.0312-.0525-.0887-.1358-.1825-.2611l-.5947-.8399-.9445-1.5599-1.0225-1.6696c-.6313-.8765-1.2104-1.5758-1.7374-2.0923-.5218-.5215-.9963-.892-1.419-1.1216-.4226-.2296-1.1321-.3444-2.1339-.3444h-.7931v9.2973h-3.0677Z"/><polygon class="d" points="166.4133 255.447 184.2565 255.447 184.2565 258.1702 176.8062 258.1702 176.8062 276.7961 173.7385 276.7961 173.7385 258.1702 166.4133 258.1702 166.4133 255.447"/><path class="d" d="M197.0827,267.7493l-3.4696-7.7371-3.2295,7.7371h6.6991Zm-4.5286-12.4276h2.1495l9.5686,21.4744h-3.1303l-2.8383-6.3232h-9.1043l-2.666,6.3232h-3.1408l9.1616-21.4744Z"/><polygon class="d" points="225.3155 255.447 228.206 255.447 228.206 276.7961 225.1383 276.7961 225.1383 260.1842 218.5747 268.4379 218.0061 268.4379 211.3645 260.1842 211.3645 276.7961 208.2968 276.7961 208.2968 255.447 211.2392 255.447 218.2983 264.2171 225.3155 255.447"/><polygon class="d" points="234.5417 255.447 246.6564 255.447 246.6564 258.1702 237.6096 258.1702 237.6096 264.6814 246.3435 264.6814 246.3435 267.4049 237.6096 267.4049 237.6096 274.0726 246.9382 274.0726 246.9382 276.7961 234.5417 276.7961 234.5417 255.447"/><polygon class="d" points="268.8996 255.447 271.8108 255.447 271.8108 276.7961 269.1762 276.7961 254.9069 260.3563 254.9069 276.7961 252.0269 276.7961 252.0269 255.447 254.5104 255.447 268.8996 272.0274 268.8996 255.447"/><polygon class="d" points="276.2997 255.447 294.143 255.447 294.143 258.1702 286.6927 258.1702 286.6927 276.7961 283.625 276.7961 283.625 258.1702 276.2997 258.1702 276.2997 255.447"/><polygon class="d" points="311.5919 255.447 315.3223 255.447 307.4335 265.5006 307.4335 276.7961 304.3032 276.7961 304.3032 265.5006 296.4146 255.447 300.1034 255.447 305.8268 262.793 311.5919 255.447"/><path class="d" d="M48.888,317.784l-3.0501-1.8508c-1.9193-1.1721-3.2834-2.3238-4.0921-3.4546-.809-1.131-1.2132-2.4403-1.2132-3.914,0-2.2139,.7676-4.0099,2.3029-5.3944,1.5287-1.3779,3.5234-2.0701,5.9703-2.0701,2.3442,0,4.4966,.6579,6.4502,1.9808v4.5652c-2.0222-1.9536-4.195-2.927-6.5256-2.927-1.309,0-2.3854,.3016-3.2284,.9119-.843,.61-1.2682,1.3844-1.2682,2.3303,0,.8431,.3087,1.6314,.9323,2.365,.6239,.7333,1.6245,1.508,3.0022,2.3167l3.0639,1.8165c3.4206,2.0494,5.1342,4.661,5.1342,7.8211,0,2.2549-.7541,4.0852-2.2621,5.4972-1.508,1.4051-3.4614,2.1112-5.8742,2.1112-2.7692,0-5.2985-.8569-7.5742-2.5636v-5.0998c2.166,2.7487,4.6817,4.1264,7.5263,4.1264,1.2611,0,2.3099-.3496,3.1461-1.0557,.8363-.7058,1.2544-1.5834,1.2544-2.6458,0-1.7136-1.2339-3.3381-3.6947-4.8665"/><path class="d" d="M82.5877,301.5114h4.0303v15.923c0,2.1592-.1576,3.7837-.4728,4.8805-.3153,1.1035-.6993,2.0151-1.1654,2.7416-.4592,.7333-1.0281,1.3847-1.6931,1.9605-2.2277,1.9122-5.1338,2.872-8.7188,2.872-3.6536,0-6.5871-.9527-8.7945-2.8516-.6715-.5894-1.2404-1.2476-1.6996-1.9809-.4595-.7265-.8433-1.6245-1.145-2.6801-.3016-1.0557-.4524-2.7145-.4524-4.9763v-15.8887h4.0306v15.923c0,2.6388,.3016,4.4759,.9048,5.5041,.6033,1.0281,1.5217,1.8575,2.7556,2.4814,1.2336,.6236,2.687,.9321,4.3594,.9321,2.3854,0,4.3319-.6237,5.8331-1.8644,.7883-.6718,1.3573-1.4601,1.7068-2.3717,.3495-.9117,.521-2.4744,.521-4.6815v-15.923Z"/><path class="d" d="M118.6384,323.0618v4.4008c-2.9406,1.6174-6.3405,2.4264-10.1996,2.4264-3.1258,0-5.7852-.6307-7.9648-1.8918-2.1798-1.2614-3.9073-2.9954-5.182-5.2095-1.2682-2.2142-1.9057-4.6063-1.9057-7.1836,0-4.0921,1.4533-7.5331,4.3665-10.3229,2.9131-2.7896,6.5049-4.1811,10.775-4.1811,2.9475,0,6.224,.7676,9.8226,2.3031v4.3183c-3.2833-1.8643-6.491-2.7966-9.6236-2.7966-3.2148,0-5.8813,1.0145-8.0062,3.0503-2.118,2.0288-3.1804,4.5717-3.1804,7.6289,0,3.0847,1.042,5.6208,3.1325,7.6085,2.0838,1.9811,4.7571,2.9749,8.0059,2.9749,3.3999,0,6.7244-1.042,9.9598-3.1257"/><polygon class="d" points="145.6413 301.5114 149.6718 301.5114 149.6718 329.5599 145.6413 329.5599 145.6413 317.3452 129.8894 317.3452 129.8894 329.5599 125.8591 329.5599 125.8591 301.5114 129.8894 301.5114 129.8894 313.6437 145.6413 313.6437 145.6413 301.5114"/><path class="d" d="M173.0276,317.6743l-4.5581-10.1654-4.2429,10.1654h8.801Zm-5.9496-16.3276h2.8241l12.5711,28.2132h-4.1128l-3.7287-8.3078h-11.961l-3.5028,8.3078h-4.1264l12.0365-28.2132Z"/><path class="d" d="M193.2032,304.9249h-1.2064v8.8424h1.5219c2.0356,0,3.4271-.1715,4.1811-.521,.7608-.3496,1.3436-.8706,1.7685-1.5767,.4182-.699,.6305-1.5012,.6305-2.3921,0-.8842-.233-1.6864-.6991-2.399-.4731-.7129-1.131-1.2203-1.9808-1.5151-.8433-.2945-2.2553-.4385-4.2157-.4385m-5.2367,24.635v-28.0485h7.0257c2.8448,0,5.093,.699,6.7586,2.1041,1.6656,1.4052,2.5019,3.3041,2.5019,5.7031,0,1.6313-.4113,3.0432-1.2269,4.2293-.8158,1.1925-1.9811,2.0837-3.5096,2.673,.8981,.5896,1.7754,1.3916,2.6323,2.4129,.8566,1.0145,2.0631,2.7898,3.619,5.3192,.9734,1.597,1.7549,2.7967,2.3442,3.5986l1.4877,2.0083h-4.7778l-1.2269-1.8507c-.0411-.0686-.1165-.1783-.2398-.3427l-.7815-1.1036-1.2407-2.0494-1.3433-2.1935c-.8295-1.1517-1.5903-2.0701-2.2828-2.7487-.6854-.6854-1.309-1.1721-1.8643-1.4737-.5553-.3016-1.4874-.4524-2.8035-.4524h-1.042v12.2147h-4.0303Z"/><path class="d" d="M221.9264,317.784l-3.0501-1.8508c-1.9193-1.1721-3.2834-2.3238-4.0921-3.4546-.809-1.131-1.2132-2.4403-1.2132-3.914,0-2.2139,.7676-4.0099,2.3029-5.3944,1.5287-1.3779,3.5234-2.0701,5.9703-2.0701,2.3442,0,4.4966,.6579,6.4502,1.9808v4.5652c-2.0222-1.9536-4.195-2.927-6.5256-2.927-1.3091,0-2.3854,.3016-3.2284,.9119-.843,.61-1.2682,1.3844-1.2682,2.3303,0,.8431,.3087,1.6314,.9323,2.365,.6239,.7333,1.6245,1.508,3.0022,2.3167l3.0639,1.8165c3.4206,2.0494,5.1342,4.661,5.1342,7.8211,0,2.2549-.7541,4.0852-2.2621,5.4972-1.508,1.4051-3.4614,2.1112-5.8742,2.1112-2.7692,0-5.2986-.8569-7.5742-2.5636v-5.0998c2.1659,2.7487,4.6817,4.1264,7.5263,4.1264,1.2611,0,2.3099-.3496,3.1461-1.0557,.8363-.7058,1.2544-1.5834,1.2544-2.6458,0-1.7136-1.234-3.3381-3.6947-4.8665"/><polygon class="d" points="251.8971 301.5114 256.9422 301.5114 244.7821 314.8158 259.9444 329.5599 254.4333 329.5599 240.1211 315.7002 240.1211 329.5599 236.0908 329.5599 236.0908 301.5114 240.1211 301.5114 240.1211 314.3362 251.8971 301.5114"/><rect class="d" x="265.3897" y="301.5114" width="4.0303" height="28.0485"/><polygon class="d" points="277.9157 301.5114 293.8317 301.5114 293.8317 305.0893 281.946 305.0893 281.946 313.6437 293.4204 313.6437 293.4204 317.2218 281.946 317.2218 281.946 325.9817 294.2019 325.9817 294.2019 329.5599 277.9157 329.5599 277.9157 301.5114"/><path class="d" d="M315.9405,315.7413h9.4181v11.8993c-3.4548,1.5012-6.8819,2.2484-10.2818,2.2484-4.6406,0-8.3557-1.3572-11.1316-4.0717-2.7763-2.7212-4.1678-6.0661-4.1678-10.0488,0-4.2018,1.4394-7.6975,4.3115-10.4873,2.8788-2.7896,6.4845-4.1811,10.8232-4.1811,1.5767,0,3.0711,.1712,4.4898,.5139,1.419,.3359,3.2148,.9598,5.3807,1.8714v4.1128c-3.3448-1.9468-6.6625-2.9202-9.9527-2.9202-3.064,0-5.648,1.0488-7.7454,3.1393-2.1044,2.0909-3.1532,4.6613-3.1532,7.7046,0,3.1941,1.0488,5.8056,3.1532,7.8347,2.0974,2.0219,4.798,3.0365,8.102,3.0365,1.6039,0,3.5232-.37,5.7577-1.1036l.3839-.1233v-5.847h-5.3876v-3.5779Z"/><path class="d" d="M347.4122,304.9249c-3.2077,0-5.84,1.0006-7.903,3.0089-2.0633,2.0084-3.0983,4.572-3.0983,7.691,0,3.0297,1.035,5.5451,3.1051,7.5535,2.0699,2.0083,4.661,3.0092,7.7729,3.0092,3.1257,0,5.7373-1.0213,7.8279-3.0707,2.0908-2.0495,3.1328-4.5995,3.1328-7.6496,0-2.975-1.042-5.47-3.1328-7.4991-2.0906-2.0287-4.6611-3.0432-7.7046-3.0432m-.1508-3.8248c4.3322,0,7.9376,1.3708,10.8167,4.1196,2.886,2.7416,4.3254,6.1894,4.3254,10.3229,0,4.14-1.4533,7.5674-4.3597,10.2747-2.9134,2.7145-6.5803,4.0717-11.0015,4.0717-4.2293,0-7.7457-1.3572-10.5628-4.0717-2.8173-2.7073-4.2225-6.1072-4.2225-10.1925,0-4.195,1.4188-7.6635,4.2497-10.4051,2.8378-2.7488,6.4228-4.1196,10.7547-4.1196Z"/></g></svg>